<?xml version="1.0" standalone="no"?><!DOCTYPE svg PUBLIC "-//W3C//DTD SVG 1.1//EN" "http://www.w3.org/Graphics/SVG/1.1/DTD/svg11.dtd"><svg t="1589699476040" class="icon" viewBox="0 0 1024 1024" version="1.1" xmlns="http://www.w3.org/2000/svg" p-id="1308" xmlns:xlink="http://www.w3.org/1999/xlink" width="100" height="100"><defs><style type="text/css"></style></defs><path d="M487.915 867.615c-11.806 15.945-27.138 27.751-44.156 34.957-8.739-10.733-15.025-22.845-19.012-35.724-22.078 0.307-44.31-6.133-63.628-20.238-46.916-34.343-57.188-100.271-22.844-147.34 18.399-25.145 42.47-32.657 68.227-45.842 24.225-12.419 62.555-29.285 101.805-45.843-6.746 44.617-9.2 105.484 2.606 181.071 4.599 29.59-3.833 52.741-22.998 78.959zM515.666 541.81s-95.978-20.545-246.078 42.009c-42.163-25.758-61.481-78.5-43.697-126.489 8.433-22.384 23.458-40.016 42.01-51.976-6.287-21.005-6.133-44.309 2.299-66.54 7.513-20.392 20.699-36.951 37.103-48.602 14.566 11.192 25.145 25.604 38.33 40.016 52.59 56.882 170.033 211.582 170.033 211.582zM672.819 230.111c0 31.278-15.025 51.516-28.058 77.274-15.638 30.664-44.462 79.573-71.907 124.802-21.005-39.863-54.582-89.845-108.09-143.2-21.158-21.158-28.058-44.923-28.058-77.273 0-32.657 14.873-61.942 38.177-81.26h0.153c10.579 3.68 20.392 8.893 29.131 15.485 17.632-13.185 39.557-21.158 63.168-21.158 58.261 0 105.484 47.069 105.484 105.33z" fill="#E27E47" p-id="1309"></path><path d="M567.335 170.776c32.802 0 59.488 26.618 59.488 59.335 0 13.015-4.831 22.487-14.88 40.989-2.735 5.036-5.516 10.169-8.157 15.388-12.669 24.843-36.963 66.973-70.27 121.863a6444.252 6444.252 0 0 1-17.271 28.336c-22.828-44.963-60.009-101.688-120.147-161.827-9.46-9.459-14.586-19.392-14.586-44.749 0-32.717 26.686-59.335 59.488-59.335 6.418 0 12.799 1.072 18.968 3.187l1.786 0.6c5.358 2.048 10.3 4.766 14.713 8.095l27.58 20.805 27.667-20.689c7.318-5.473 19.44-11.998 35.621-11.998m0-45.996c-23.611 0-45.536 7.973-63.168 21.158-8.739-6.593-18.552-11.806-29.131-15.485h-0.153c-10.733-3.68-22.078-5.673-33.884-5.673-58.261 0-105.484 47.069-105.484 105.331 0 32.351 6.9 56.116 28.058 77.274 126.489 126.489 142.28 233.199 142.28 233.199s32.35-51.208 67.001-108.397c27.445-45.229 56.269-94.138 71.907-124.802 13.033-25.758 28.058-45.996 28.058-77.274 0-58.261-47.223-105.331-105.484-105.331z" fill="#0F3944" p-id="1310"></path><path d="M246.207 316.174c7.059 0 14.049 1.274 20.877 3.825a47.088 47.088 0 0 1 12.195 6.686c6.808 5.231 13.399 12.854 21.03 21.68 3.679 4.255 7.427 8.581 11.551 13.089 27.156 29.371 73.149 86.957 110.026 134.13-44.911 5.089-102.723 17.745-170.309 45.912a1269.19 1269.19 0 0 0-23.312 10.207c-6.706 3.089-12.482 4.466-18.728 4.466-7.617 0-16.596-2.03-28.222-6.376-30.678-11.494-46.365-45.782-35.037-76.246 4.6-12.212 12.861-22.424 23.889-29.533l29.055-18.73-9.912-33.117c-2.577-8.611-4.453-22.027 1.362-37.361 8.567-23.107 30.886-38.632 55.535-38.632m-0.002-45.996c-42.748 0-82.93 26.215-98.659 68.637-8.432 22.232-8.586 45.535-2.299 66.54-18.552 11.959-33.577 29.592-42.01 51.976C83 511.759 110.75 572.474 165.179 592.866c15.953 5.962 30.338 9.299 44.36 9.299 12.659 0 25.023-2.721 37.972-8.686a1223.381 1223.381 0 0 1 22.078-9.659c90.597-37.757 161.47-45.239 203.43-45.239 27.558 0 42.648 3.229 42.648 3.229s-117.443-154.7-170.032-211.581c-13.185-14.412-23.764-28.824-38.33-40.016-6.899-5.213-14.718-9.813-24.224-13.339-12.16-4.543-24.623-6.696-36.876-6.696z" fill="#0F3944" p-id="1311"></path><path d="M463.836 594.154a526.578 526.578 0 0 0-1.008 6.553c-9.081 60.062-8.193 125.685 2.635 195.012 2.05 13.194 0.318 24.233-14.514 44.526-6.585 8.894-15.274 15.8-24.95 19.899-7.377 3.088-15.477 4.72-23.426 4.72-12.538 0-24.522-3.926-34.58-11.295-10.53-7.749-18.11-18.422-21.925-30.865l-10.114-32.992-34.504 0.482-0.862 0.006c-12.683 0-24.786-3.942-34.955-11.367-26.418-19.339-32.186-56.624-12.893-83.064 7.635-10.435 17.116-15.243 36.135-24.284 5.223-2.482 10.542-5.018 15.839-7.73 35.66-18.154 103.539-46.811 159.122-69.601m69.615-77.642c-6.593 2.607-181.837 71.754-249.604 106.251-25.758 13.185-49.829 20.698-68.227 45.842-34.343 47.069-24.071 112.997 22.844 147.34 18.881 13.786 40.541 20.249 62.124 20.249 0.5 0 1.004-0.004 1.504-0.011 6.439 21.005 19.472 40.323 38.637 54.428 18.701 13.701 40.357 20.246 61.844 20.246 14.098 0 28.126-2.82 41.186-8.287 17.018-7.206 32.35-19.012 44.156-34.957 19.165-26.218 27.597-49.369 22.998-78.96-11.806-75.587-9.352-136.454-2.606-181.071 8.432-57.339 23.918-88.463 25.144-91.07z" fill="#0F3944" p-id="1312"></path><path d="M585.064 858.906c38.852 43.354 105.492 47.003 148.845 8.151 17.697-15.859 28.658-36.37 32.933-58.015 21.983-1.886 43.568-10.542 61.265-26.401 43.354-38.852 47.003-105.492 8.151-148.845-21.591-24.092-42.563-37.166-72.521-38.806-178.615-9.781-261.517-78.788-261.517-78.788s32.19 191.487 52.189 266.38c7.462 27.945 9.831 53.088 30.655 76.324z" fill="#E27E47" p-id="1313"></path><path d="M563.779 600.553c46.994 18.267 112.534 35.713 197.443 40.363 13.405 0.734 23.875 4.709 40.783 23.576 21.863 24.396 19.802 62.032-4.594 83.894-9.582 8.586-21.511 13.714-34.5 14.828l-34.488 2.958-6.706 33.958c-2.526 12.789-8.925 24.086-18.506 32.673a59.283 59.283 0 0 1-39.614 15.168c-16.885 0-33.026-7.203-44.28-19.762-8.68-9.686-11.412-20.019-16.293-40.619-1.308-5.521-2.646-11.143-4.177-16.876-10.342-38.732-24.32-111.216-35.068-170.161m-61.559-84.352s32.191 191.487 52.189 266.38c7.462 27.946 9.831 53.088 30.655 76.325 20.818 23.23 49.617 35.061 78.534 35.061 25.05 0 50.188-8.876 70.311-26.911 17.697-15.859 28.659-36.369 32.933-58.015 21.984-1.886 43.568-10.542 61.265-26.401 43.353-38.852 47.003-105.492 8.151-148.846-21.591-24.092-42.563-37.165-72.521-38.806-178.614-9.78-261.517-78.787-261.517-78.787z" fill="#0F3944" p-id="1314"></path><path d="M863.237 571.349c53.706-22.465 79.032-84.213 56.567-137.919-9.17-21.922-24.945-39.01-43.987-50.155 5.436-21.384 4.346-44.614-4.824-66.536-22.465-53.706-84.213-79.032-137.919-56.567-29.846 12.484-49.08 28.002-60.464 55.761-67.881 165.502-160.28 221.154-160.28 221.154s191.442 32.461 268.749 38.159c28.846 2.127 53.373 8.143 82.158-3.897z" fill="#E27E47" p-id="1315"></path><path d="M773.706 297.975c24.043 0 45.575 14.332 54.852 36.513 4.964 11.869 5.891 24.82 2.679 37.454l-8.528 33.546 29.873 17.483c11.252 6.585 19.823 16.339 24.787 28.207 12.642 30.223-1.661 65.095-31.883 77.737-6.245 2.613-12.368 3.728-20.47 3.728-6.876 0-14.462-0.775-23.245-1.673-5.645-0.577-11.395-1.159-17.312-1.595-39.982-2.947-113.036-13.541-172.243-22.741 32.683-38.393 70.68-94.572 102.949-173.248 5.094-12.42 12.285-21.004 35.658-30.78 7.344-3.073 15.042-4.631 22.883-4.631m0-45.995c-13.561 0-27.341 2.632-40.633 8.192-29.846 12.484-49.079 28.002-60.464 55.76-67.88 165.503-160.279 221.155-160.279 221.155s191.441 32.461 268.748 38.16c15.444 1.138 29.654 3.392 43.938 3.392 12.396 0 24.847-1.696 38.22-7.29 53.706-22.465 79.031-84.213 56.567-137.919-9.17-21.922-24.945-39.01-43.988-50.155 5.436-21.384 4.346-44.614-4.824-66.536-16.904-40.415-56.058-64.759-97.285-64.759z" fill="#0F3944" p-id="1316"></path><path d="M519.499 531.538m-61.328 0a61.328 61.328 0 1 0 122.656 0 61.328 61.328 0 1 0-122.656 0Z" fill="#0F3944" p-id="1317"></path></svg>